<svg width="140" height="50" viewBox="0 0 140 50" fill="none" xmlns="http://www.w3.org/2000/svg">
<g clip-path="url(#clip0)">
<path d="M0 43.7498V5.69767C0 5.69767 1.59228 -0.834281 7.61877 0.101762L133.772 1.78379e-05C133.772 1.78379e-05 139.133 -0.0610282 140 6.95929V43.7498C140 43.7498 137.319 50.4446 131.293 49.9766H8.54593C8.54593 49.9766 1.02793 49.5085 0 43.7498H0Z" fill="#8AC43F"/>
<path d="M27.8545 16.9097H6.28812C6.28812 16.9097 3.6679 16.6859 3.86946 19.5958V42.366C3.86946 42.366 4.23226 44.6451 7.07418 44.2381L27.8545 44.2788C27.8545 44.2788 29.6685 44.1364 29.9708 42.305C30.2731 40.4736 29.9708 19.2905 29.9708 19.2905C29.9708 19.2905 30.2328 16.9097 27.8545 16.9097Z" fill="#FFFFF9"/>
<path d="M10.1382 14.9971H7.39706C7.39706 14.9971 7.1955 7.75296 14.3507 4.98553C14.3507 4.98553 20.1756 3.0524 23.8439 7.61052C25.6824 9.7005 26.9288 12.2522 27.4518 14.9971H24.1261C24.1261 14.9971 23.1788 8.40412 18.2609 8.13959C18.2609 8.13959 12.2948 6.77622 10.1382 14.9971Z" fill="white"/>
<path d="M20.6994 37.7266H13.2822L15.2172 32.1918L15.1567 29.7703C15.1567 29.7703 12.8791 28.6104 13.5442 25.8023C13.5442 25.8023 14.3102 23.0145 17.3536 23.5232C17.3536 23.5232 20.2762 24.0523 19.994 27.3895C19.994 27.3895 19.4296 29.7499 17.8374 29.811V32.1714L20.6994 37.7266Z" fill="#87BF40"/>
<path d="M34.9902 4.96509H38.3764C39.102 4.96509 39.6663 5.14823 40.0291 5.49416C40.3919 5.84008 40.5733 6.3488 40.5733 6.99996C40.5733 7.65112 40.3718 8.20054 39.9686 8.56682C39.5655 8.93309 38.9609 9.13658 38.1546 9.13658H37.0461V11.5988H34.9902V4.96509ZM37.0461 7.79356H37.5298C37.9329 7.79356 38.195 7.73252 38.3562 7.59008C38.4344 7.52691 38.497 7.44622 38.539 7.35438C38.581 7.26255 38.6012 7.1621 38.5981 7.06101C38.6021 6.96359 38.5863 6.86637 38.5517 6.77536C38.517 6.68435 38.4642 6.6015 38.3965 6.53194C38.2554 6.3895 37.9934 6.30811 37.6104 6.30811H37.0461V7.79356Z" fill="white"/>
<path d="M43.0928 11.5987V4.96504H46.4789C46.9612 4.95013 47.443 5.00495 47.9099 5.12783C48.2431 5.22589 48.5296 5.44284 48.7161 5.73829C48.9261 6.05705 49.0318 6.43422 49.0185 6.81678C49.0239 7.14267 48.9477 7.46466 48.7968 7.75282C48.6409 8.02235 48.4188 8.24666 48.1518 8.40398C47.9288 8.53804 47.6826 8.62783 47.4262 8.66851C47.6186 8.72225 47.802 8.80455 47.9704 8.9127C48.0857 9.02759 48.1934 9.14994 48.2929 9.27897C48.4065 9.39966 48.5016 9.53684 48.5751 9.68595L49.5627 11.5987H47.265L46.1766 9.58421C46.0864 9.38823 45.9637 9.20929 45.8138 9.05514C45.6633 8.95871 45.4881 8.90917 45.3099 8.9127H45.1285V11.5987H43.0928ZM45.1285 7.65107H45.9952C46.172 7.64123 46.3476 7.61397 46.5192 7.56968C46.6496 7.5344 46.768 7.46407 46.8618 7.36619C46.9407 7.25297 46.9829 7.11794 46.9828 6.97957C46.9908 6.88478 46.9767 6.78942 46.9417 6.70109C46.9067 6.61277 46.8518 6.53392 46.7812 6.47085C46.5474 6.34144 46.2809 6.2848 46.0153 6.30806H45.1285V7.65107Z" fill="white"/>
<path d="M51.2148 8.28196C51.2148 7.20347 51.5171 6.36917 52.1218 5.75871C52.7265 5.14825 53.5529 4.84302 54.6211 4.84302C55.6893 4.84302 56.556 5.14825 57.1405 5.73836C57.725 6.32848 58.0274 7.16278 58.0274 8.24126C58.0537 8.90065 57.9223 9.55673 57.6444 10.154C57.3878 10.6432 56.9956 11.0462 56.5157 11.3139C55.9542 11.6003 55.3305 11.7402 54.7017 11.7209C54.0642 11.7414 53.4303 11.6162 52.8474 11.3546C52.3533 11.1114 51.9452 10.7207 51.6784 10.2354C51.3533 9.63795 51.1932 8.96328 51.2148 8.28196ZM53.2505 8.30231C53.2505 8.97381 53.3715 9.44184 53.6133 9.74707C53.7401 9.88844 53.896 9.99998 54.0702 10.0738C54.2443 10.1477 54.4324 10.182 54.6211 10.1744C54.8131 10.185 55.0051 10.1522 55.183 10.0783C55.3608 10.0043 55.5201 9.89116 55.649 9.74707C55.8909 9.46218 56.0118 8.95347 56.0118 8.20056C56.0118 7.44766 55.8707 7.12208 55.6289 6.83719C55.503 6.6947 55.3472 6.58238 55.1729 6.50845C54.9985 6.43452 54.81 6.40084 54.6211 6.40987C54.4352 6.40098 54.2497 6.43482 54.0786 6.50884C53.9075 6.58287 53.7553 6.69514 53.6335 6.83719C53.3715 7.14243 53.2505 7.6308 53.2505 8.30231Z" fill="white"/>
<path d="M59.8613 4.96509H66.0289V6.61334H63.9529V11.5988H61.9172V6.61334H59.8613V4.96509Z" fill="white"/>
<path d="M68.3672 4.96509H73.8092V6.3895H70.4029V7.44764H73.5673V8.79065H70.4029V10.093H73.9099V11.5988H68.3672V4.96509Z" fill="white"/>
<path d="M80.8034 8.89242L82.5972 9.42149C82.4912 9.88105 82.2997 10.3161 82.0328 10.7035C81.777 11.0314 81.4446 11.29 81.0654 11.4564C80.6066 11.6505 80.1112 11.7408 79.6142 11.7209C79.013 11.7445 78.4142 11.6333 77.8607 11.3953C77.3709 11.1554 76.9637 10.7726 76.6916 10.2965C76.3382 9.67924 76.1636 8.97416 76.1878 8.26161C76.1878 7.16277 76.4901 6.32848 77.0544 5.73836C77.6188 5.14825 78.4653 4.84302 79.5134 4.84302C80.5615 4.84302 81.0049 5.02616 81.4685 5.35174C81.9788 5.74777 82.3525 6.29599 82.5367 6.91859L80.7429 7.32557C80.6953 7.16813 80.6275 7.01763 80.5413 6.87789C80.4185 6.72134 80.2611 6.59593 80.0818 6.51166C79.9024 6.42739 79.706 6.3866 79.5083 6.39253C79.3106 6.39846 79.1169 6.45095 78.9429 6.54581C78.7688 6.64068 78.6191 6.7753 78.5056 6.93894C78.2931 7.34531 78.1955 7.80293 78.2235 8.26161C78.2235 8.99416 78.3444 9.50288 78.5661 9.76742C78.6765 9.90591 78.8185 10.0153 78.98 10.0862C79.1415 10.1571 79.3176 10.1873 79.4933 10.1744C79.6555 10.1866 79.8184 10.1639 79.9713 10.1078C80.1242 10.0516 80.2635 9.96338 80.3801 9.84881C80.6031 9.57379 80.7492 9.2436 80.8034 8.89242Z" fill="white"/>
<path d="M84.5322 4.96509H90.7199V6.61334H88.6439V11.5988H86.6082V6.61334H84.5322V4.96509Z" fill="white"/>
<path d="M93.0576 4.96509H98.4996V6.3895H95.0933V7.44764H98.2577V8.79065H95.0933V10.093H98.6004V11.5988H93.0576V4.96509Z" fill="white"/>
<path d="M101.141 4.96519H104.164C104.659 4.94567 105.153 5.02878 105.615 5.20938C105.97 5.36908 106.281 5.61349 106.522 5.92158C106.764 6.23642 106.942 6.59588 107.046 6.97972C107.152 7.39875 107.206 7.8293 107.207 8.26169C107.232 8.82165 107.15 9.38112 106.966 9.90994C106.821 10.2828 106.594 10.617 106.3 10.8867C106.04 11.1385 105.721 11.3204 105.373 11.4157C104.98 11.5304 104.573 11.592 104.164 11.5989H101.141V4.96519ZM103.176 6.471V10.0931H103.68C103.989 10.1167 104.3 10.0679 104.587 9.95064C104.781 9.84401 104.932 9.6708 105.01 9.46227C105.126 9.0873 105.174 8.69442 105.152 8.30239C105.152 7.59018 105.051 7.12216 104.809 6.85763C104.567 6.59309 104.204 6.471 103.68 6.471H103.176Z" fill="white"/>
<path d="M114.181 4.96514H117.99C118.515 4.93387 119.032 5.1007 119.441 5.43317C119.607 5.5809 119.739 5.76261 119.83 5.96614C119.92 6.16968 119.966 6.39035 119.965 6.61339C119.975 6.98651 119.846 7.34975 119.603 7.63083C119.4 7.83661 119.151 7.99015 118.877 8.0785C119.285 8.1412 119.658 8.35077 119.925 8.66862C120.16 8.96887 120.282 9.3441 120.268 9.72675C120.271 10.0485 120.187 10.3651 120.026 10.6424C119.87 10.912 119.648 11.1363 119.381 11.2936C119.135 11.4181 118.868 11.4941 118.595 11.5174C118.294 11.5633 117.991 11.5905 117.688 11.5988H114.181V4.96514ZM116.237 7.56979H117.123C117.356 7.585 117.588 7.52822 117.789 7.407C117.851 7.34336 117.9 7.26686 117.932 7.18262C117.963 7.09839 117.976 7.00838 117.97 6.91862C117.974 6.83514 117.96 6.75176 117.929 6.67439C117.897 6.59702 117.849 6.52757 117.789 6.47095C117.589 6.34722 117.357 6.29024 117.123 6.30816H116.237V7.56979ZM116.237 10.1744H117.264C117.526 10.2015 117.79 10.1368 118.01 9.99129C118.083 9.92921 118.141 9.85109 118.18 9.76291C118.218 9.67473 118.236 9.57883 118.232 9.48257C118.231 9.39291 118.211 9.30449 118.173 9.2236C118.134 9.14271 118.079 9.07133 118.01 9.01455C117.79 8.869 117.526 8.80434 117.264 8.83141H116.237V10.1744Z" fill="white"/>
<path d="M122.082 4.96509H124.339L125.67 7.20345L127 4.96509H129.237L126.677 8.83135V11.5988H124.642V8.83135L122.082 4.96509Z" fill="white"/>
<path d="M130.647 6.79639H132.603V8.64812H130.647V6.79639ZM130.647 9.7673H132.603V11.5987H130.647V9.7673Z" fill="white"/>
<path d="M34.1436 21.9563H43.3546C45.1686 21.9563 46.6198 22.2005 47.7485 22.6889C48.8241 23.1693 49.7707 23.9018 50.5098 24.8255C51.2572 25.7883 51.7993 26.8968 52.1021 28.0813C52.4302 29.357 52.5928 30.6703 52.5858 31.9882C52.5858 34.1655 52.344 35.8341 51.8602 37.0347C51.4044 38.169 50.7098 39.1896 49.8245 40.026C49.0391 40.7801 48.0849 41.3316 47.0431 41.6335C45.8422 41.9767 44.6024 42.1614 43.3546 42.183H34.1436V21.9563ZM40.3514 26.5348V37.5841H41.8631C43.1531 37.5841 44.0802 37.4417 44.6244 37.1568C45.2114 36.8081 45.6656 36.2708 45.9144 35.6307C46.2167 34.9185 46.3779 33.7382 46.3779 32.1103C46.3779 29.9737 46.0151 28.5086 45.3298 27.715C44.6446 26.9214 43.4957 26.5348 41.8833 26.5348H40.3514Z" fill="white"/>
<path d="M55.4473 21.9563H63.5901L66.7343 34.2673L69.8383 21.9563H77.9811V42.183H72.9221V26.7586L69.0119 42.183H64.4165L60.5063 26.7586V42.183H55.4473V21.9563Z" fill="white"/>
<path d="M125.912 38.8458H118.877L117.91 42.183H111.581L119.119 21.9563H125.871L133.389 42.183H126.919L125.912 38.8458ZM124.622 34.4708L122.405 27.1859L120.228 34.4708H124.622Z" fill="white"/>
<path d="M112.79 32.0698C112.789 34.9599 112.034 37.7988 110.602 40.3011C109.169 42.8033 107.109 44.8807 104.629 46.3244C102.149 47.768 99.3368 48.5271 96.4741 48.5253C93.6114 48.5234 90.7996 47.7607 88.3215 46.3139C84.6487 44.0946 81.9876 40.5063 80.9124 36.3234C79.8373 32.1406 80.4344 27.6987 82.5748 23.9564C84.7153 20.2141 88.2274 17.4716 92.3531 16.3208C96.4789 15.17 100.887 15.7032 104.627 17.8053C107.102 19.2574 109.158 21.3379 110.59 23.8403C112.022 26.3427 112.78 29.1798 112.79 32.0698ZM109.626 32.0698C109.626 28.407 108.343 25.2733 105.776 22.6686C103.21 20.064 100.106 18.7685 96.4643 18.782C94.7348 18.7557 93.0183 19.0869 91.4204 19.7553C89.8224 20.4237 88.3768 21.4151 87.1726 22.6686C84.5927 25.2733 83.3027 28.407 83.3027 32.0698C83.3187 35.5889 84.7104 38.9594 87.1752 41.4479C89.6401 43.9363 92.9785 45.3414 96.4643 45.3575C100.092 45.3575 103.196 44.0552 105.776 41.4505C107.018 40.2347 108 38.7753 108.662 37.1621C109.324 35.5488 109.652 33.8158 109.626 32.0698ZM100.274 34.1046L104.668 35.1424C104.117 36.8924 103.371 38.2354 102.43 39.1715C100.939 40.6162 98.9837 41.3488 96.5852 41.3488C94.1867 41.3488 91.8285 40.4941 90.1758 38.7848C88.523 37.0756 87.6966 34.8372 87.6966 32.0291C87.6966 29.2209 88.5432 27.1657 90.2362 25.4361C91.9293 23.7064 94.0456 22.8314 96.6054 22.8314C98.6612 22.8314 100.395 23.3808 101.805 24.5C103.183 25.558 104.135 27.0829 104.486 28.7936L100.274 29.4448C100.012 28.2645 99.5481 27.4099 98.8628 26.8401C98.1731 26.2633 97.2991 25.9595 96.4038 25.9855C95.2953 25.9855 94.3681 26.4739 93.6022 27.4099C92.8363 28.3459 92.4735 29.8721 92.4735 31.907C92.4735 33.9418 92.7355 35.4477 93.2394 36.3226C94.0053 37.5843 95.0735 38.2151 96.4441 38.2151C97.3205 38.2132 98.1607 37.8622 98.7822 37.2383C99.4674 36.5872 99.9713 35.5494 100.274 34.1046Z" fill="white"/>
</g>
<defs>
<clipPath id="clip0">
<rect width="140" height="50" fill="white"/>
</clipPath>
</defs>
</svg>
