<svg width="176" height="65" viewBox="0 0 176 65" fill="none" xmlns="http://www.w3.org/2000/svg">
<path d="M23.14 0.449999C20.08 0.449999 17.12 1.02 14.33 2.14C11.63 3.23 9.21 4.78 7.12 6.77C5.03 8.76 3.39 11.07 2.25 13.66C1.06 16.34 0.459999 19.18 0.459999 22.11C0.459999 25.04 1.06 27.89 2.25 30.56C3.4 33.14 5.04 35.46 7.12 37.45C9.2 39.43 11.63 40.99 14.33 42.08C17.12 43.2 20.09 43.77 23.14 43.77H152.61C155.67 43.77 158.63 43.2 161.42 42.07C164.12 40.98 166.55 39.42 168.63 37.44C170.72 35.45 172.36 33.13 173.5 30.55C174.69 27.87 175.29 25.03 175.29 22.1C175.29 19.17 174.69 16.32 173.5 13.65C172.36 11.07 170.72 8.75 168.62 6.76C166.54 4.78 164.11 3.22 161.41 2.13C158.62 1.01 155.65 0.439999 152.6 0.439999H23.14V0.449999Z" fill="white"/>
<path d="M124.14 4.31C126.81 4.6 129.54 5.09 131.91 6.42C133.49 7.32 134.88 8.76 135.21 10.58C135.34 11.65 135.3 12.75 135.04 13.81C133.26 11.61 131.3 9.42 128.75 8.09C130.49 10.15 132.44 12.12 133.65 14.56C131.85 15 129.87 14.62 128.34 13.59C126.59 12.39 125.55 10.43 124.96 8.47C124.51 7.12 124.37 5.71 124.15 4.32" fill="#5EAB46"/>
<path d="M17.17 17.29C17.17 19.24 17.17 21.19 17.17 23.13C18.69 23.15 20.22 23.16 21.75 23.13C22.5 23.13 23.29 22.94 23.84 22.4C24.4 21.87 24.55 21.07 24.57 20.34C24.59 19.5 24.41 18.59 23.81 17.97C23.21 17.43 22.37 17.26 21.57 17.27C20.11 17.27 18.64 17.27 17.17 17.27M12.86 15.84C12.8 14.69 13.84 13.63 15.01 13.67C17.53 13.67 20.06 13.67 22.58 13.67C24.22 13.7 25.98 14.13 27.14 15.34C28.3 16.46 28.73 18.1 28.81 19.66C28.9 21.44 28.62 23.35 27.48 24.81C26.43 26.2 24.6 26.78 22.9 26.82C20.99 26.82 19.07 26.82 17.16 26.82C17.17 29.27 17.16 31.71 17.17 34.16H12.84C12.85 28.04 12.84 21.93 12.85 15.81" fill="#5EAB46"/>
<path d="M30.4 13.7C31.1 13.7 31.8 13.68 32.5 13.7C33.59 13.66 34.57 14.64 34.55 15.71C34.55 17.26 34.55 18.8 34.55 20.35C35.34 19.07 36.71 18.2 38.22 18.03C41.3 17.46 44.55 19.67 45.23 22.64C45.41 23.41 45.49 24.2 45.5 24.99V34.22C44.13 34.22 42.76 34.22 41.38 34.22C41.36 31.35 41.38 28.49 41.38 25.63C41.41 24.06 40.67 22.26 39.06 21.72C37.91 21.38 36.53 21.6 35.7 22.49C34.86 23.38 34.57 24.62 34.56 25.79V34.22C33.18 34.22 31.79 34.22 30.41 34.22C30.41 27.38 30.41 20.53 30.41 13.7" fill="#5EAB46"/>
<path d="M54.54 27.09C53.69 27.27 52.75 27.42 52.08 28.02C51.41 28.82 51.41 30.17 52.24 30.86C52.9 31.34 53.78 31.28 54.55 31.18C55.66 31.04 56.67 30.29 57.08 29.26C57.47 28.3 57.35 27.25 57.37 26.23C56.46 26.63 55.51 26.9 54.55 27.09M50.27 18.96C51.82 17.98 53.75 17.87 55.54 17.97C57.11 18.09 58.78 18.36 60.01 19.41C60.87 20.13 61.33 21.22 61.34 22.33C61.34 24.2 61.34 26.07 61.34 27.95C61.34 29.44 61.05 31.02 60.03 32.18C58.82 33.7 56.79 34.32 54.88 34.41C53.01 34.62 50.96 34.52 49.38 33.38C48.08 32.53 47.62 30.91 47.69 29.45C47.63 28.08 48.08 26.55 49.31 25.76C50.75 24.77 52.52 24.48 54.23 24.26C55.18 24.1 56.23 24.03 56.98 23.39C57.52 22.92 57.37 21.96 56.73 21.66C56.16 21.38 55.51 21.3 54.88 21.24C53.87 21.2 52.65 21.39 52.15 22.37C50.79 22.38 49.43 22.37 48.08 22.37C48.26 20.98 49.08 19.69 50.29 18.94" fill="#5EAB46"/>
<path d="M75.43 19.73C76.94 18.59 78.85 17.99 80.76 17.94C82.5 17.99 84.37 18.27 85.75 19.41C87.03 18.36 88.73 18.06 90.36 17.95C92.21 17.91 94.1 18.42 95.63 19.47C96.73 20.24 97.28 21.56 97.49 22.84C97.71 23.98 97.63 25.15 97.64 26.3V34.21C96.71 34.17 95.74 34.3 94.82 34.11C94.03 33.88 93.42 33.1 93.45 32.27V24.32C93.45 23.59 93.37 22.78 92.83 22.23C91.68 21.04 89.54 21.04 88.38 22.21C87.87 22.72 87.75 23.46 87.75 24.15C87.74 27.5 87.75 30.86 87.74 34.21C86.33 34.21 84.92 34.21 83.52 34.21V23.98C83.55 23.24 83.29 22.42 82.65 21.97C81.48 21.07 79.64 21.11 78.58 22.16C78.1 22.63 77.94 23.32 77.95 23.98C77.95 27.39 77.95 30.79 77.95 34.21C76.52 34.21 75.1 34.21 73.68 34.21C73.68 30.92 73.67 27.61 73.68 24.32C73.76 22.68 74.11 20.86 75.44 19.73" fill="#5EAB46"/>
<path d="M105.46 27.29C104.72 27.49 103.82 27.78 103.59 28.59C103.19 29.51 103.55 30.83 104.6 31.12C106.01 31.48 107.74 31.11 108.58 29.87C109.34 28.81 109.18 27.45 109.19 26.24C108 26.77 106.72 27.01 105.46 27.29ZM103.1 18.46C105 17.77 107.09 17.86 109.05 18.18C110.66 18.46 112.34 19.35 112.91 20.96C113.35 22.37 113.1 23.87 113.17 25.31C113.1 27.42 113.45 29.75 112.25 31.64C111.18 33.38 109.09 34.26 107.09 34.38C105.19 34.58 103.12 34.62 101.47 33.56C100.21 32.88 99.57 31.47 99.5 30.11C99.41 28.73 99.57 27.17 100.63 26.16C101.95 25.01 103.73 24.56 105.45 24.36C106.54 24.17 107.75 24.17 108.68 23.5C109.3 23.09 109.25 22.09 108.61 21.73C108.06 21.42 107.42 21.35 106.81 21.28C105.77 21.22 104.5 21.39 103.96 22.4C102.61 22.41 101.25 22.4 99.89 22.4C100.11 20.63 101.41 19.08 103.1 18.47" fill="#5EAB46"/>
<path d="M65.85 20.08C67.67 18.63 70.12 18.27 72.39 18.32C72.39 19.74 72.39 21.16 72.39 22.58C71.21 22.6 69.92 22.42 68.86 23.04C67.88 23.58 67.55 24.76 67.55 25.79V34.21C66.13 34.21 64.72 34.21 63.31 34.21C63.31 31.4 63.29 28.61 63.31 25.82C63.35 23.68 64.12 21.45 65.84 20.08" fill="#5EAB46"/>
<path d="M138.96 13.7C140.16 13.82 141.64 13.31 142.57 14.29C143.12 14.77 143.21 15.52 143.17 16.21C143.16 16.94 143.16 17.68 143.17 18.41H145.66C145.65 19.13 145.77 19.96 145.21 20.54C144.73 21.14 143.92 21.31 143.18 21.27C143.18 24.16 143.18 27.06 143.18 29.96C143.15 30.38 143.34 30.86 143.78 30.99C144.4 31.13 145.03 31.03 145.66 31.05C145.66 32.1 145.65 33.16 145.66 34.21C144.21 34.21 142.76 34.26 141.31 34.14C140.73 34.09 140.14 33.92 139.71 33.5C139.16 32.97 138.98 32.17 138.98 31.43C138.98 25.52 138.98 19.6 138.98 13.7" fill="#0071B8"/>
<path d="M117.13 20.22C118.22 18.89 119.91 18.13 121.63 17.99C123.54 17.82 125.57 18.1 127.19 19.18C128.57 20.1 129.41 21.63 129.84 23.18C128.43 23.18 127.02 23.15 125.61 23.18C125.26 22.61 124.87 22.04 124.25 21.75C123.07 21.21 121.5 21.33 120.56 22.27C119.74 23.19 119.53 24.46 119.48 25.64C119.44 27 119.48 28.46 120.23 29.65C121.29 31.4 124.18 31.47 125.44 29.9C125.72 29.61 126.06 29.32 126.49 29.32C127.64 29.27 128.79 29.32 129.96 29.3C129.54 30.85 128.66 32.31 127.29 33.2C125.46 34.45 123.08 34.71 120.92 34.33C119.01 34.02 117.33 32.76 116.41 31.09C115.47 29.39 115.25 27.38 115.32 25.47C115.4 23.6 115.89 21.67 117.13 20.21" fill="#0071B8"/>
<path d="M131.58 18.32C132.59 18.39 133.66 18.16 134.63 18.5C135.34 18.83 135.86 19.57 135.83 20.36V34.22C134.42 34.22 132.99 34.22 131.58 34.22C131.59 28.92 131.58 23.62 131.58 18.33" fill="#0071B8"/>
<path d="M147.22 18.32H151.92C152.86 21.5 153.78 24.68 154.71 27.86C154.85 28.36 154.95 28.88 155.21 29.34C156.17 26.09 157.11 22.83 158.06 19.58C158.24 18.89 158.89 18.38 159.62 18.34C160.71 18.29 161.81 18.34 162.9 18.32C160.98 23.91 159.07 29.51 157.15 35.11C156.63 36.63 156.13 38.37 154.7 39.33C153.1 40.08 151.23 39.99 149.52 39.8V36.53C150.55 36.51 151.74 36.66 152.6 35.95C153.16 35.52 153.08 34.72 152.86 34.13C150.98 28.87 149.1 23.6 147.22 18.33" fill="#0071B8"/>
<path d="M23.14 0.45C20.08 0.45 17.12 1.02 14.33 2.14C11.63 3.23 9.21 4.78 7.12 6.77C5.03 8.76 3.39 11.07 2.25 13.66C1.06 16.34 0.46 19.18 0.46 22.11C0.46 25.04 1.06 27.89 2.25 30.56C3.4 33.14 5.04 35.46 7.12 37.45C9.2 39.43 11.63 40.99 14.33 42.08C17.12 43.2 20.09 43.77 23.14 43.77H152.61C155.67 43.77 158.63 43.2 161.42 42.07C164.12 40.98 166.55 39.42 168.63 37.44C170.72 35.45 172.36 33.13 173.5 30.55C174.69 27.87 175.29 25.03 175.29 22.1C175.29 19.17 174.69 16.32 173.5 13.65C172.36 11.07 170.72 8.75 168.62 6.76C166.54 4.78 164.11 3.22 161.41 2.13C158.62 1.01 155.65 0.44 152.6 0.44H23.14V0.45ZM152.61 44.24H23.14C20.03 44.24 17 43.66 14.16 42.51C11.4 41.4 8.93 39.81 6.81 37.79C4.68 35.76 3 33.39 1.83 30.76C0.62 28.03 0 25.12 0 22.12C0 19.12 0.62 16.22 1.83 13.48C3 10.84 4.68 8.48 6.81 6.45C8.94 4.43 11.41 2.84 14.16 1.73C17.01 0.58 20.03 0 23.14 0H152.61C155.72 0 158.74 0.58 161.59 1.73C164.34 2.84 166.82 4.43 168.94 6.45C171.07 8.48 172.75 10.85 173.92 13.48C175.13 16.21 175.75 19.12 175.75 22.12C175.75 25.12 175.13 28.02 173.92 30.76C172.75 33.39 171.08 35.76 168.94 37.79C166.82 39.81 164.34 41.4 161.59 42.51C158.74 43.66 155.72 44.24 152.61 44.24Z" fill="#59595B"/>
<path d="M14.02 61.41V51.2H16.31L21.03 58.54H21.06L21.03 51.2H22.96V61.41H20.68L15.92 54.02H15.89L15.93 61.41H14.01H14.02Z" fill="white"/>
<path d="M25.18 61.41V50.5H27.08V55.36H27.12C27.29 55.01 27.58 54.73 27.96 54.51C28.35 54.29 28.78 54.18 29.24 54.18C30.11 54.18 30.76 54.45 31.19 54.99C31.63 55.53 31.85 56.23 31.85 57.08V61.41H29.95V57.56C29.95 57.01 29.85 56.57 29.66 56.25C29.47 55.93 29.13 55.76 28.64 55.76C28.15 55.76 27.78 55.94 27.5 56.31C27.22 56.68 27.08 57.13 27.08 57.66V61.41H25.18Z" fill="white"/>
<path d="M35.96 61.59C35.22 61.59 34.61 61.39 34.14 60.98C33.67 60.58 33.43 60.06 33.43 59.42C33.43 58.78 33.62 58.29 34 57.96C34.38 57.63 34.91 57.39 35.6 57.25C36.29 57.11 37.04 57.04 37.84 57.04H38.1V56.88C38.1 56.46 37.97 56.13 37.7 55.91C37.44 55.69 37.07 55.58 36.61 55.58C36.27 55.58 35.94 55.66 35.61 55.8C35.28 55.95 35 56.14 34.77 56.37L33.8 55.29C34.18 54.93 34.64 54.66 35.16 54.46C35.68 54.26 36.23 54.17 36.8 54.17C37.89 54.17 38.67 54.45 39.15 55C39.63 55.55 39.87 56.38 39.87 57.49V60.2C39.87 60.45 39.87 60.66 39.89 60.83C39.91 61 39.91 61.19 39.91 61.41H38.18C38.16 61.2 38.15 61.03 38.16 60.92C38.17 60.81 38.16 60.67 38.16 60.5H38.12C37.9 60.85 37.6 61.11 37.22 61.3C36.84 61.49 36.41 61.58 35.94 61.58L35.96 61.59ZM36.21 53.31L34.36 51.22H36.39L37.67 53.31H36.2H36.21ZM36.43 60.28C36.97 60.28 37.4 60.12 37.71 59.8C38.02 59.48 38.19 59.06 38.19 58.55V58.2H37.86C37.08 58.2 36.45 58.28 35.96 58.43C35.47 58.58 35.22 58.89 35.22 59.35C35.22 59.67 35.34 59.9 35.59 60.05C35.84 60.2 36.12 60.27 36.43 60.27V60.28Z" fill="white"/>
<path d="M48.02 61.56C47.26 61.56 46.69 61.36 46.32 60.98C45.94 60.59 45.76 60.02 45.76 59.27V55.82H44.52V54.38H45.75V52.49H47.61V54.38H49.37V55.82H47.61V58.98C47.61 59.37 47.69 59.66 47.84 59.82C47.99 59.99 48.23 60.07 48.56 60.07C48.68 60.07 48.8 60.06 48.94 60.03C49.08 60 49.2 59.96 49.29 59.9L49.32 61.34C49.11 61.42 48.89 61.47 48.66 61.51C48.43 61.54 48.22 61.56 48.03 61.56H48.02Z" fill="white"/>
<path d="M50.64 61.41V50.5H52.54V55.36H52.58C52.75 55.01 53.04 54.73 53.42 54.51C53.81 54.29 54.24 54.18 54.7 54.18C55.57 54.18 56.22 54.45 56.65 54.99C57.09 55.53 57.31 56.23 57.31 57.08V61.41H55.41V57.56C55.41 57.01 55.31 56.57 55.12 56.25C54.93 55.93 54.59 55.76 54.1 55.76C53.61 55.76 53.24 55.94 52.96 56.31C52.68 56.68 52.54 57.13 52.54 57.66V61.41H50.64Z" fill="white"/>
<path d="M61.88 61.61C61.03 61.61 60.39 61.34 59.95 60.8C59.51 60.26 59.29 59.57 59.29 58.72V54.36H61.22V58.23C61.22 58.78 61.32 59.21 61.51 59.54C61.7 59.86 62.04 60.02 62.53 60.02C63.02 60.02 63.39 59.84 63.66 59.47C63.93 59.1 64.07 58.65 64.07 58.1V54.36H65.97V60.85C65.97 61.01 65.97 61.2 65.98 61.4H64.13V60.35H64.1C63.89 60.75 63.57 61.06 63.14 61.28C62.71 61.5 62.29 61.61 61.86 61.61H61.88Z" fill="white"/>
<path d="M71.5 61.63C70.41 61.63 69.5 61.28 68.77 60.58C68.03 59.88 67.67 58.98 67.67 57.88C67.67 56.78 68.04 55.89 68.77 55.2C69.5 54.51 70.41 54.17 71.51 54.17C72.61 54.17 73.55 54.51 74.29 55.2C75.03 55.89 75.39 56.78 75.39 57.88C75.39 58.98 75.02 59.86 74.28 60.57C73.54 61.28 72.62 61.63 71.51 61.63H71.5ZM69.02 53.45L70.62 51.36H72.42L74.04 53.45H72.47L71.53 52.14L70.55 53.45H69.02ZM71.5 60.01C72.1 60.01 72.58 59.8 72.95 59.38C73.32 58.96 73.5 58.45 73.5 57.86C73.5 57.27 73.31 56.73 72.93 56.33C72.55 55.94 72.07 55.74 71.49 55.74C70.91 55.74 70.43 55.94 70.06 56.35C69.69 56.75 69.51 57.26 69.51 57.86C69.51 58.46 69.7 59 70.08 59.4C70.46 59.8 70.93 60.01 71.49 60.01H71.5ZM73.43 52.08L74.7 50H76.73L74.9 52.08H73.43Z" fill="white"/>
<path d="M80.56 61.63C79.43 61.63 78.49 61.28 77.77 60.59C77.04 59.9 76.68 59 76.68 57.89C76.68 56.78 77.04 55.89 77.76 55.2C78.48 54.51 79.41 54.17 80.54 54.17C81.04 54.17 81.53 54.26 82 54.44C82.48 54.62 82.86 54.87 83.16 55.19L81.98 56.42C81.85 56.23 81.65 56.07 81.38 55.94C81.12 55.82 80.85 55.75 80.58 55.75C80 55.75 79.53 55.95 79.16 56.36C78.79 56.77 78.6 57.28 78.6 57.88C78.6 58.52 78.79 59.04 79.17 59.42C79.55 59.8 80.03 60 80.6 60C80.9 60 81.18 59.94 81.44 59.81C81.7 59.68 81.91 59.54 82.06 59.36L83.17 60.59C82.83 60.96 82.43 61.22 81.97 61.38C81.51 61.54 81.03 61.62 80.54 61.62L80.56 61.63Z" fill="white"/>
<path d="M90.98 61.41V53.43L89.08 54.92L88.06 53.54L91.16 51.2H92.93V61.41H90.98Z" fill="white"/>
<path d="M100.4 61.69C99.51 61.69 98.77 61.43 98.19 60.92C97.61 60.41 97.2 59.72 96.98 58.87C96.75 58.02 96.64 57.16 96.64 56.28C96.64 54.58 96.97 53.26 97.64 52.33C98.3 51.4 99.23 50.93 100.41 50.93C101.34 50.93 102.09 51.2 102.66 51.75C103.23 52.3 103.62 52.98 103.84 53.79C104.06 54.6 104.16 55.44 104.16 56.29C104.16 57.96 103.84 59.28 103.2 60.24C102.56 61.2 101.63 61.68 100.41 61.68L100.4 61.69ZM100.4 60C100.83 60 101.19 59.82 101.46 59.45C101.73 59.08 101.92 58.61 102.02 58.03C102.12 57.45 102.17 56.86 102.17 56.28C102.17 55.11 102.01 54.2 101.69 53.55C101.37 52.9 100.94 52.58 100.39 52.58C99.76 52.58 99.31 52.93 99.02 53.62C98.73 54.31 98.59 55.21 98.59 56.3C98.59 57.55 98.75 58.48 99.07 59.09C99.39 59.7 99.83 60.01 100.39 60.01L100.4 60Z" fill="white"/>
<path d="M109.4 61.69C108.51 61.69 107.77 61.43 107.19 60.92C106.61 60.41 106.2 59.72 105.98 58.87C105.75 58.02 105.64 57.16 105.64 56.28C105.64 54.58 105.97 53.26 106.64 52.33C107.3 51.4 108.23 50.93 109.41 50.93C110.34 50.93 111.09 51.2 111.66 51.75C112.23 52.3 112.62 52.98 112.84 53.79C113.06 54.6 113.16 55.44 113.16 56.29C113.16 57.96 112.84 59.28 112.2 60.24C111.56 61.2 110.63 61.68 109.41 61.68L109.4 61.69ZM109.4 60C109.83 60 110.19 59.82 110.46 59.45C110.73 59.08 110.92 58.61 111.02 58.03C111.12 57.45 111.17 56.86 111.17 56.28C111.17 55.11 111.01 54.2 110.69 53.55C110.37 52.9 109.94 52.58 109.39 52.58C108.76 52.58 108.31 52.93 108.02 53.62C107.73 54.31 107.59 55.21 107.59 56.3C107.59 57.55 107.75 58.48 108.07 59.09C108.39 59.7 108.83 60.01 109.39 60.01L109.4 60Z" fill="white"/>
<path d="M115.7 53.65C115.27 53.65 114.91 53.5 114.61 53.2C114.31 52.9 114.16 52.54 114.16 52.11C114.16 51.68 114.31 51.32 114.61 51.01C114.91 50.7 115.28 50.55 115.7 50.55C116.12 50.55 116.5 50.7 116.81 51C117.12 51.3 117.27 51.67 117.27 52.1C117.27 52.53 117.12 52.88 116.82 53.19C116.52 53.5 116.15 53.65 115.7 53.65ZM115.7 52.85C115.93 52.85 116.12 52.78 116.26 52.63C116.4 52.48 116.48 52.31 116.48 52.11C116.48 51.9 116.4 51.72 116.25 51.57C116.1 51.42 115.91 51.35 115.69 51.35C115.47 51.35 115.3 51.43 115.15 51.58C115 51.73 114.93 51.91 114.93 52.12C114.93 52.34 115.01 52.52 115.17 52.66C115.33 52.79 115.5 52.86 115.68 52.86L115.7 52.85ZM116.15 56.89L115.51 56.57L119.1 50.4L119.76 50.73L116.15 56.89ZM119.54 56.71C119.11 56.71 118.75 56.56 118.44 56.26C118.13 55.96 117.98 55.59 117.98 55.17C117.98 54.75 118.13 54.37 118.44 54.07C118.75 53.77 119.11 53.62 119.54 53.62C119.97 53.62 120.35 53.77 120.65 54.07C120.95 54.37 121.1 54.74 121.1 55.16C121.1 55.58 120.95 55.96 120.65 56.26C120.35 56.56 119.98 56.71 119.54 56.71ZM119.54 55.93C119.76 55.93 119.94 55.85 120.09 55.7C120.24 55.55 120.31 55.37 120.31 55.17C120.31 54.96 120.24 54.78 120.09 54.62C119.94 54.46 119.76 54.39 119.54 54.39C119.32 54.39 119.15 54.47 119 54.62C118.85 54.77 118.78 54.95 118.78 55.17C118.78 55.39 118.86 55.57 119.02 55.71C119.18 55.85 119.36 55.92 119.54 55.92V55.93Z" fill="white"/>
<path d="M128.5 61.61C127.65 61.61 127.01 61.34 126.57 60.8C126.13 60.26 125.91 59.57 125.91 58.72V54.36H127.84V58.23C127.84 58.78 127.94 59.21 128.13 59.54C128.32 59.86 128.66 60.02 129.15 60.02C129.64 60.02 130.01 59.84 130.28 59.47C130.55 59.1 130.69 58.65 130.69 58.1V54.36H132.59V60.85C132.59 61.01 132.59 61.2 132.6 61.4H130.75V60.35H130.72C130.51 60.75 130.19 61.06 129.76 61.28C129.33 61.5 128.91 61.61 128.48 61.61H128.5Z" fill="white"/>
<path d="M135.26 64.87C135.06 64.87 134.85 64.86 134.64 64.83C134.43 64.8 134.26 64.77 134.12 64.74L134.34 63.12C134.51 63.17 134.67 63.2 134.81 63.21C134.95 63.22 135.04 63.23 135.08 63.23C135.45 63.23 135.71 63.14 135.88 62.96C136.05 62.78 136.2 62.52 136.33 62.2L136.66 61.33L133.7 54.36H135.81L137.61 59.29L137.65 59.33H137.68L139.31 54.35H141.36L138.07 62.69C137.89 63.2 137.66 63.62 137.4 63.95C137.14 64.28 136.83 64.51 136.48 64.65C136.13 64.79 135.73 64.86 135.25 64.86L135.26 64.87Z" fill="white"/>
<path d="M148.59 61.56C147.83 61.56 147.26 61.36 146.89 60.98C146.51 60.59 146.33 60.02 146.33 59.27V55.82H145.09V54.38H146.32V52.49H148.18V54.38H149.94V55.82H148.18V58.98C148.18 59.37 148.26 59.66 148.41 59.82C148.56 59.99 148.8 60.07 149.13 60.07C149.25 60.07 149.37 60.06 149.51 60.03C149.65 60 149.77 59.96 149.86 59.9L149.89 61.34C149.68 61.42 149.46 61.47 149.23 61.51C149 61.54 148.79 61.56 148.6 61.56H148.59Z" fill="white"/>
<path d="M151.13 53.31L152.44 51.22H154.49L152.63 53.31H151.13ZM151.22 61.42V54.38H153.11V61.42H151.22Z" fill="white"/>
<path d="M155.23 61.41V55.83C155.23 55.45 155.23 55.16 155.23 54.98C155.23 54.8 155.23 54.6 155.23 54.37H157.08C157.08 54.66 157.09 54.87 157.09 54.99V55.42H157.12C157.33 55.02 157.65 54.71 158.07 54.5C158.49 54.29 158.91 54.18 159.32 54.18C160.17 54.18 160.81 54.45 161.26 54.99C161.71 55.53 161.93 56.23 161.93 57.08V61.41H160V57.54C160 56.92 159.89 56.46 159.67 56.17C159.45 55.88 159.12 55.74 158.69 55.74C158.22 55.74 157.85 55.92 157.57 56.29C157.3 56.66 157.16 57.12 157.16 57.65V61.4H155.24L155.23 61.41Z" fill="white"/>
</svg>
